<svg xmlns="http://www.w3.org/2000/svg" xmlns:xlink="http://www.w3.org/1999/xlink" width="816" zoomAndPan="magnify" viewBox="0 0 612 791.999994" height="1056" preserveAspectRatio="xMidYMid meet" version="1.0"><defs><g/><clipPath id="0122bab7e7"><path d="M 96.78125 157.511719 L 490.902344 157.511719 L 490.902344 551.632812 L 96.78125 551.632812 Z M 96.78125 157.511719 " clip-rule="nonzero"/></clipPath><clipPath id="64e62c9d7b"><path d="M 293.839844 157.511719 C 185.007812 157.511719 96.78125 245.738281 96.78125 354.570312 C 96.78125 463.40625 185.007812 551.632812 293.839844 551.632812 C 402.675781 551.632812 490.902344 463.40625 490.902344 354.570312 C 490.902344 245.738281 402.675781 157.511719 293.839844 157.511719 Z M 293.839844 157.511719 " clip-rule="nonzero"/></clipPath><clipPath id="639b4931ca"><path d="M 265 364 L 401 364 L 401 489.101562 L 265 489.101562 Z M 265 364 " clip-rule="nonzero"/></clipPath><clipPath id="a533c5db27"><path d="M 162.105469 211.773438 L 412 211.773438 L 412 457 L 162.105469 457 Z M 162.105469 211.773438 " clip-rule="nonzero"/></clipPath><clipPath id="c035108e51"><path d="M 162.105469 237 L 412 237 L 412 457 L 162.105469 457 Z M 162.105469 237 " clip-rule="nonzero"/></clipPath><clipPath id="78ed54efff"><path d="M 173 211.773438 L 409 211.773438 L 409 379 L 173 379 Z M 173 211.773438 " clip-rule="nonzero"/></clipPath></defs><g clip-path="url(#0122bab7e7)"><g clip-path="url(#64e62c9d7b)"><path fill="#118f31" d="M 96.78125 157.511719 L 490.902344 157.511719 L 490.902344 551.632812 L 96.78125 551.632812 Z M 96.78125 157.511719 " fill-opacity="1" fill-rule="nonzero"/></g></g><g fill="#000000" fill-opacity="1"><g transform="translate(95.864325, 656.578049)"><g><path d="M 19.96875 0.46875 C 16.882812 0.46875 14.125 -0.078125 11.6875 -1.171875 C 9.25 -2.265625 7.335938 -3.78125 5.953125 -5.71875 C 4.578125 -7.664062 3.863281 -9.910156 3.8125 -12.453125 L 10.3125 -12.453125 C 10.539062 -10.265625 11.445312 -8.421875 13.03125 -6.921875 C 14.613281 -5.429688 16.925781 -4.6875 19.96875 -4.6875 C 22.863281 -4.6875 25.148438 -5.410156 26.828125 -6.859375 C 28.503906 -8.316406 29.34375 -10.179688 29.34375 -12.453125 C 29.34375 -14.242188 28.847656 -15.695312 27.859375 -16.8125 C 26.878906 -17.925781 25.648438 -18.773438 24.171875 -19.359375 C 22.703125 -19.941406 20.71875 -20.566406 18.21875 -21.234375 C 15.132812 -22.035156 12.664062 -22.835938 10.8125 -23.640625 C 8.957031 -24.441406 7.375 -25.703125 6.0625 -27.421875 C 4.75 -29.148438 4.09375 -31.460938 4.09375 -34.359375 C 4.09375 -36.910156 4.738281 -39.164062 6.03125 -41.125 C 7.320312 -43.09375 9.140625 -44.613281 11.484375 -45.6875 C 13.828125 -46.757812 16.519531 -47.296875 19.5625 -47.296875 C 23.9375 -47.296875 27.519531 -46.195312 30.3125 -44 C 33.101562 -41.8125 34.675781 -38.910156 35.03125 -35.296875 L 28.328125 -35.296875 C 28.109375 -37.085938 27.171875 -38.660156 25.515625 -40.015625 C 23.867188 -41.378906 21.679688 -42.0625 18.953125 -42.0625 C 16.410156 -42.0625 14.332031 -41.398438 12.71875 -40.078125 C 11.113281 -38.765625 10.3125 -36.925781 10.3125 -34.5625 C 10.3125 -32.863281 10.789062 -31.476562 11.75 -30.40625 C 12.71875 -29.332031 13.90625 -28.515625 15.3125 -27.953125 C 16.71875 -27.398438 18.691406 -26.769531 21.234375 -26.0625 C 24.316406 -25.207031 26.796875 -24.367188 28.671875 -23.546875 C 30.546875 -22.722656 32.148438 -21.445312 33.484375 -19.71875 C 34.828125 -18 35.5 -15.671875 35.5 -12.734375 C 35.5 -10.453125 34.894531 -8.304688 33.6875 -6.296875 C 32.488281 -4.285156 30.703125 -2.65625 28.328125 -1.40625 C 25.960938 -0.15625 23.175781 0.46875 19.96875 0.46875 Z M 19.96875 0.46875 "/></g></g></g><g fill="#000000" fill-opacity="1"><g transform="translate(135.185998, 656.578049)"><g><path d="M 11.25 -41.734375 L 11.25 -26.125 L 28.265625 -26.125 L 28.265625 -21.09375 L 11.25 -21.09375 L 11.25 -5.03125 L 30.28125 -5.03125 L 30.28125 0 L 5.15625 0 L 5.15625 -46.75 L 30.28125 -46.75 L 30.28125 -41.734375 Z M 11.25 -41.734375 "/></g></g></g><g fill="#000000" fill-opacity="1"><g transform="translate(169.550544, 656.578049)"><g><path d="M 2.875 -23.375 C 2.875 -27.925781 3.898438 -32.019531 5.953125 -35.65625 C 8.015625 -39.300781 10.816406 -42.148438 14.359375 -44.203125 C 17.910156 -46.265625 21.851562 -47.296875 26.1875 -47.296875 C 31.28125 -47.296875 35.722656 -46.066406 39.515625 -43.609375 C 43.316406 -41.148438 46.085938 -37.664062 47.828125 -33.15625 L 40.53125 -33.15625 C 39.226562 -35.96875 37.359375 -38.132812 34.921875 -39.65625 C 32.492188 -41.175781 29.582031 -41.9375 26.1875 -41.9375 C 22.925781 -41.9375 20 -41.175781 17.40625 -39.65625 C 14.820312 -38.132812 12.789062 -35.976562 11.3125 -33.1875 C 9.84375 -30.394531 9.109375 -27.125 9.109375 -23.375 C 9.109375 -19.664062 9.84375 -16.414062 11.3125 -13.625 C 12.789062 -10.832031 14.820312 -8.675781 17.40625 -7.15625 C 20 -5.644531 22.925781 -4.890625 26.1875 -4.890625 C 29.582031 -4.890625 32.492188 -5.632812 34.921875 -7.125 C 37.359375 -8.625 39.226562 -10.78125 40.53125 -13.59375 L 47.828125 -13.59375 C 46.085938 -9.132812 43.316406 -5.6875 39.515625 -3.25 C 35.722656 -0.8125 31.28125 0.40625 26.1875 0.40625 C 21.851562 0.40625 17.910156 -0.609375 14.359375 -2.640625 C 10.816406 -4.671875 8.015625 -7.492188 5.953125 -11.109375 C 3.898438 -14.734375 2.875 -18.820312 2.875 -23.375 Z M 2.875 -23.375 "/></g></g></g><g fill="#000000" fill-opacity="1"><g transform="translate(221.264908, 656.578049)"><g><path d="M 11.125 -46.6875 L 11.125 -17.140625 C 11.125 -12.992188 12.140625 -9.914062 14.171875 -7.90625 C 16.203125 -5.894531 19.023438 -4.890625 22.640625 -4.890625 C 26.210938 -4.890625 29.015625 -5.894531 31.046875 -7.90625 C 33.078125 -9.914062 34.09375 -12.992188 34.09375 -17.140625 L 34.09375 -46.6875 L 40.1875 -46.6875 L 40.1875 -17.21875 C 40.1875 -13.332031 39.40625 -10.0625 37.84375 -7.40625 C 36.28125 -4.75 34.171875 -2.769531 31.515625 -1.46875 C 28.859375 -0.175781 25.878906 0.46875 22.578125 0.46875 C 19.265625 0.46875 16.28125 -0.175781 13.625 -1.46875 C 10.96875 -2.769531 8.867188 -4.75 7.328125 -7.40625 C 5.796875 -10.0625 5.03125 -13.332031 5.03125 -17.21875 L 5.03125 -46.6875 Z M 11.125 -46.6875 "/></g></g></g><g fill="#000000" fill-opacity="1"><g transform="translate(266.481438, 656.578049)"><g><path d="M 41.859375 0 L 35.765625 0 L 11.25 -37.171875 L 11.25 0 L 5.15625 0 L 5.15625 -46.75 L 11.25 -46.75 L 35.765625 -9.640625 L 35.765625 -46.75 L 41.859375 -46.75 Z M 41.859375 0 "/></g></g></g><g fill="#000000" fill-opacity="1"><g transform="translate(313.573682, 656.578049)"><g><path d="M 19.6875 -46.6875 C 24.78125 -46.6875 29.191406 -45.738281 32.921875 -43.84375 C 36.648438 -41.945312 39.507812 -39.234375 41.5 -35.703125 C 43.488281 -32.171875 44.484375 -28.019531 44.484375 -23.25 C 44.484375 -18.46875 43.488281 -14.320312 41.5 -10.8125 C 39.507812 -7.3125 36.648438 -4.632812 32.921875 -2.78125 C 29.191406 -0.925781 24.78125 0 19.6875 0 L 5.15625 0 L 5.15625 -46.6875 Z M 19.6875 -5.03125 C 25.71875 -5.03125 30.316406 -6.625 33.484375 -9.8125 C 36.660156 -13.007812 38.25 -17.488281 38.25 -23.25 C 38.25 -29.050781 36.648438 -33.582031 33.453125 -36.84375 C 30.265625 -40.101562 25.675781 -41.734375 19.6875 -41.734375 L 11.25 -41.734375 L 11.25 -5.03125 Z M 19.6875 -5.03125 "/></g></g></g><g fill="#000000" fill-opacity="1"><g transform="translate(360.933811, 656.578049)"><g><path d="M 32.75 -10.375 L 12.390625 -10.375 L 8.640625 0 L 2.203125 0 L 19.09375 -46.421875 L 26.125 -46.421875 L 42.9375 0 L 36.5 0 Z M 31.015625 -15.34375 L 22.578125 -38.921875 L 14.140625 -15.34375 Z M 31.015625 -15.34375 "/></g></g></g><g fill="#000000" fill-opacity="1"><g transform="translate(406.083391, 656.578049)"><g><path d="M 29.734375 0 L 18.625 -19.09375 L 11.25 -19.09375 L 11.25 0 L 5.15625 0 L 5.15625 -46.6875 L 20.234375 -46.6875 C 23.753906 -46.6875 26.734375 -46.082031 29.171875 -44.875 C 31.609375 -43.675781 33.425781 -42.046875 34.625 -39.984375 C 35.832031 -37.929688 36.4375 -35.585938 36.4375 -32.953125 C 36.4375 -29.742188 35.507812 -26.910156 33.65625 -24.453125 C 31.800781 -21.992188 29.019531 -20.363281 25.3125 -19.5625 L 37.046875 0 Z M 11.25 -23.984375 L 20.234375 -23.984375 C 23.535156 -23.984375 26.007812 -24.796875 27.65625 -26.421875 C 29.3125 -28.054688 30.140625 -30.234375 30.140625 -32.953125 C 30.140625 -35.722656 29.320312 -37.867188 27.6875 -39.390625 C 26.0625 -40.910156 23.578125 -41.671875 20.234375 -41.671875 L 11.25 -41.671875 Z M 11.25 -23.984375 "/></g></g></g><g fill="#000000" fill-opacity="1"><g transform="translate(446.811786, 656.578049)"><g><path d="M 11.25 -46.6875 L 11.25 0 L 5.15625 0 L 5.15625 -46.6875 Z M 11.25 -46.6875 "/></g></g></g><g fill="#000000" fill-opacity="1"><g transform="translate(463.290741, 656.578049)"><g><path d="M 26.328125 0.46875 C 21.992188 0.46875 18.039062 -0.546875 14.46875 -2.578125 C 10.894531 -4.609375 8.066406 -7.441406 5.984375 -11.078125 C 3.910156 -14.722656 2.875 -18.820312 2.875 -23.375 C 2.875 -27.925781 3.910156 -32.019531 5.984375 -35.65625 C 8.066406 -39.300781 10.894531 -42.140625 14.46875 -44.171875 C 18.039062 -46.203125 21.992188 -47.21875 26.328125 -47.21875 C 30.703125 -47.21875 34.675781 -46.203125 38.25 -44.171875 C 41.820312 -42.140625 44.632812 -39.316406 46.6875 -35.703125 C 48.738281 -32.085938 49.765625 -27.976562 49.765625 -23.375 C 49.765625 -18.78125 48.738281 -14.671875 46.6875 -11.046875 C 44.632812 -7.429688 41.820312 -4.609375 38.25 -2.578125 C 34.675781 -0.546875 30.703125 0.46875 26.328125 0.46875 Z M 26.328125 -4.828125 C 29.585938 -4.828125 32.519531 -5.582031 35.125 -7.09375 C 37.738281 -8.613281 39.796875 -10.78125 41.296875 -13.59375 C 42.796875 -16.40625 43.546875 -19.664062 43.546875 -23.375 C 43.546875 -27.125 42.796875 -30.394531 41.296875 -33.1875 C 39.796875 -35.976562 37.75 -38.132812 35.15625 -39.65625 C 32.570312 -41.175781 29.628906 -41.9375 26.328125 -41.9375 C 23.023438 -41.9375 20.078125 -41.175781 17.484375 -39.65625 C 14.890625 -38.132812 12.84375 -35.976562 11.34375 -33.1875 C 9.851562 -30.394531 9.109375 -27.125 9.109375 -23.375 C 9.109375 -19.664062 9.851562 -16.40625 11.34375 -13.59375 C 12.84375 -10.78125 14.898438 -8.613281 17.515625 -7.09375 C 20.128906 -5.582031 23.066406 -4.828125 26.328125 -4.828125 Z M 26.328125 -4.828125 "/></g></g></g><g clip-path="url(#639b4931ca)"><path fill="#ffffff" d="M 392.324219 400.675781 L 389.21875 400.675781 C 388.390625 400.675781 387.582031 400.550781 386.792969 400.300781 C 386.003906 400.046875 385.273438 399.679688 384.601562 399.199219 C 383.925781 398.71875 383.34375 398.144531 382.847656 397.480469 C 382.355469 396.816406 381.972656 396.09375 381.707031 395.308594 C 380.859375 392.804688 379.847656 390.367188 378.675781 387.996094 C 378.308594 387.25 378.0625 386.46875 377.941406 385.648438 C 377.820312 384.828125 377.828125 384.007812 377.960938 383.191406 C 378.097656 382.371094 378.355469 381.59375 378.734375 380.855469 C 379.113281 380.117188 379.597656 379.457031 380.183594 378.871094 L 382.378906 376.671875 C 382.75 376.304688 383.078125 375.902344 383.367188 375.46875 C 383.65625 375.035156 383.902344 374.578125 384.101562 374.097656 C 384.300781 373.613281 384.453125 373.117188 384.554688 372.605469 C 384.65625 372.09375 384.707031 371.578125 384.707031 371.054688 C 384.707031 370.535156 384.65625 370.015625 384.554688 369.503906 C 384.453125 368.996094 384.300781 368.496094 384.101562 368.015625 C 383.902344 367.535156 383.65625 367.074219 383.367188 366.640625 C 383.078125 366.207031 382.75 365.808594 382.378906 365.4375 L 381.699219 364.746094 C 375.507812 373.503906 368.519531 381.5625 360.722656 388.929688 C 363.394531 392.632812 365.429688 396.65625 366.828125 401.003906 C 368.230469 405.347656 368.925781 409.804688 368.921875 414.371094 C 368.921875 438.464844 349.386719 457.996094 325.292969 457.996094 C 323.265625 457.996094 321.246094 457.855469 319.238281 457.574219 C 317.226562 457.292969 315.25 456.875 313.296875 456.316406 C 311.347656 455.757812 309.445312 455.070312 307.589844 454.246094 C 305.738281 453.425781 303.949219 452.476562 302.226562 451.402344 C 300.503906 450.332031 298.863281 449.144531 297.308594 447.84375 C 295.75 446.542969 294.292969 445.140625 292.933594 443.636719 C 291.570312 442.132812 290.320312 440.539062 289.183594 438.859375 C 288.042969 437.183594 287.027344 435.433594 286.132812 433.613281 C 281.273438 435.429688 276.226562 437.164062 270.996094 438.816406 C 271.289062 439.46875 271.59375 440.121094 271.917969 440.761719 C 272.285156 441.503906 272.527344 442.289062 272.652344 443.109375 C 272.773438 443.929688 272.765625 444.746094 272.628906 445.566406 C 272.492188 446.382812 272.238281 447.164062 271.855469 447.898438 C 271.476562 448.636719 270.992188 449.300781 270.40625 449.886719 L 268.210938 452.082031 C 267.839844 452.449219 267.511719 452.851562 267.222656 453.285156 C 266.933594 453.71875 266.6875 454.175781 266.488281 454.660156 C 266.289062 455.140625 266.136719 455.636719 266.035156 456.148438 C 265.933594 456.660156 265.882812 457.175781 265.882812 457.699219 C 265.882812 458.21875 265.933594 458.738281 266.035156 459.25 C 266.136719 459.761719 266.289062 460.257812 266.488281 460.738281 C 266.6875 461.222656 266.933594 461.679688 267.222656 462.113281 C 267.511719 462.546875 267.839844 462.949219 268.210938 463.316406 L 276.355469 471.460938 C 276.722656 471.832031 277.125 472.160156 277.558594 472.449219 C 277.992188 472.742188 278.449219 472.984375 278.933594 473.183594 C 279.414062 473.382812 279.910156 473.535156 280.421875 473.636719 C 280.933594 473.738281 281.453125 473.789062 281.972656 473.789062 C 282.496094 473.789062 283.011719 473.738281 283.523438 473.636719 C 284.035156 473.535156 284.53125 473.382812 285.011719 473.183594 C 285.496094 472.984375 285.953125 472.742188 286.386719 472.449219 C 286.820312 472.160156 287.222656 471.832031 287.589844 471.460938 L 289.785156 469.265625 C 290.375 468.679688 291.035156 468.195312 291.773438 467.816406 C 292.511719 467.4375 293.289062 467.179688 294.109375 467.046875 C 294.925781 466.910156 295.746094 466.902344 296.566406 467.023438 C 297.386719 467.144531 298.167969 467.390625 298.914062 467.757812 C 301.285156 468.929688 303.722656 469.941406 306.230469 470.789062 C 307.011719 471.054688 307.734375 471.4375 308.402344 471.929688 C 309.066406 472.425781 309.636719 473.007812 310.117188 473.683594 C 310.597656 474.359375 310.964844 475.089844 311.21875 475.878906 C 311.46875 476.667969 311.59375 477.476562 311.59375 478.300781 L 311.59375 481.402344 C 311.59375 481.925781 311.644531 482.441406 311.746094 482.953125 C 311.847656 483.464844 311.996094 483.960938 312.199219 484.445312 C 312.398438 484.925781 312.640625 485.382812 312.929688 485.816406 C 313.222656 486.25 313.550781 486.652344 313.917969 487.019531 C 314.289062 487.390625 314.691406 487.71875 315.125 488.007812 C 315.558594 488.300781 316.015625 488.542969 316.496094 488.742188 C 316.980469 488.941406 317.476562 489.09375 317.988281 489.195312 C 318.5 489.296875 319.015625 489.347656 319.539062 489.347656 L 331.058594 489.347656 C 331.582031 489.347656 332.097656 489.296875 332.609375 489.195312 C 333.121094 489.09375 333.617188 488.941406 334.097656 488.742188 C 334.582031 488.542969 335.039062 488.296875 335.472656 488.007812 C 335.90625 487.71875 336.304688 487.390625 336.675781 487.019531 C 337.042969 486.652344 337.375 486.25 337.664062 485.816406 C 337.953125 485.382812 338.199219 484.925781 338.398438 484.441406 C 338.597656 483.960938 338.746094 483.464844 338.847656 482.953125 C 338.949219 482.441406 339 481.925781 339 481.402344 L 339 478.300781 C 339 477.472656 339.125 476.664062 339.378906 475.878906 C 339.628906 475.089844 339.996094 474.355469 340.476562 473.683594 C 340.957031 473.007812 341.53125 472.425781 342.195312 471.929688 C 342.859375 471.4375 343.582031 471.054688 344.367188 470.789062 C 346.871094 469.941406 349.304688 468.929688 351.675781 467.753906 C 352.417969 467.386719 353.199219 467.144531 354.019531 467.023438 C 354.839844 466.898438 355.660156 466.90625 356.480469 467.042969 C 357.296875 467.179688 358.074219 467.433594 358.8125 467.816406 C 359.550781 468.195312 360.210938 468.675781 360.796875 469.265625 L 362.996094 471.460938 C 363.363281 471.828125 363.765625 472.160156 364.199219 472.449219 C 364.632812 472.738281 365.089844 472.984375 365.570312 473.183594 C 366.054688 473.382812 366.550781 473.53125 367.0625 473.632812 C 367.574219 473.738281 368.089844 473.789062 368.613281 473.789062 C 369.132812 473.789062 369.648438 473.738281 370.160156 473.636719 C 370.671875 473.53125 371.171875 473.382812 371.652344 473.183594 C 372.132812 472.984375 372.59375 472.738281 373.027344 472.449219 C 373.460938 472.160156 373.859375 471.828125 374.230469 471.460938 L 382.375 463.3125 C 382.746094 462.945312 383.074219 462.542969 383.363281 462.109375 C 383.652344 461.675781 383.898438 461.21875 384.097656 460.738281 C 384.296875 460.253906 384.449219 459.757812 384.550781 459.246094 C 384.652344 458.734375 384.703125 458.21875 384.703125 457.695312 C 384.703125 457.175781 384.652344 456.660156 384.550781 456.148438 C 384.449219 455.636719 384.296875 455.136719 384.097656 454.65625 C 383.898438 454.175781 383.652344 453.714844 383.363281 453.28125 C 383.074219 452.847656 382.746094 452.449219 382.375 452.078125 L 380.179688 449.882812 C 379.59375 449.296875 379.109375 448.636719 378.730469 447.898438 C 378.351562 447.160156 378.09375 446.382812 377.957031 445.566406 C 377.820312 444.75 377.8125 443.929688 377.933594 443.109375 C 378.054688 442.289062 378.300781 441.507812 378.664062 440.761719 C 379.839844 438.390625 380.847656 435.953125 381.695312 433.449219 C 381.964844 432.664062 382.34375 431.941406 382.839844 431.277344 C 383.332031 430.609375 383.917969 430.039062 384.589844 429.558594 C 385.265625 429.074219 385.996094 428.710938 386.785156 428.457031 C 387.574219 428.207031 388.382812 428.082031 389.210938 428.082031 L 392.3125 428.082031 C 392.835938 428.082031 393.351562 428.03125 393.863281 427.929688 C 394.375 427.828125 394.871094 427.675781 395.351562 427.476562 C 395.835938 427.277344 396.292969 427.03125 396.726562 426.742188 C 397.160156 426.453125 397.5625 426.125 397.929688 425.753906 C 398.296875 425.386719 398.628906 424.984375 398.917969 424.550781 C 399.207031 424.117188 399.453125 423.660156 399.652344 423.179688 C 399.851562 422.695312 400 422.199219 400.105469 421.6875 C 400.207031 421.175781 400.257812 420.660156 400.257812 420.140625 L 400.257812 408.617188 C 400.257812 408.097656 400.207031 407.582031 400.105469 407.070312 C 400.003906 406.558594 399.851562 406.0625 399.652344 405.582031 C 399.453125 405.097656 399.207031 404.640625 398.917969 404.207031 C 398.628906 403.773438 398.300781 403.375 397.933594 403.003906 C 397.566406 402.636719 397.164062 402.308594 396.730469 402.015625 C 396.296875 401.726562 395.839844 401.484375 395.359375 401.28125 C 394.878906 401.082031 394.382812 400.933594 393.871094 400.828125 C 393.359375 400.726562 392.84375 400.675781 392.324219 400.675781 Z M 392.324219 400.675781 " fill-opacity="1" fill-rule="nonzero"/></g><g clip-path="url(#a533c5db27)"><path fill="#ffffff" d="M 261.367188 428.074219 L 258.265625 428.074219 C 257.742188 428.074219 257.226562 428.023438 256.714844 427.921875 C 256.203125 427.820312 255.707031 427.671875 255.222656 427.46875 C 254.742188 427.269531 254.285156 427.027344 253.851562 426.738281 C 253.417969 426.445312 253.015625 426.117188 252.648438 425.75 C 252.277344 425.378906 251.949219 424.980469 251.660156 424.546875 C 251.367188 424.113281 251.125 423.652344 250.925781 423.171875 C 250.726562 422.691406 250.574219 422.191406 250.472656 421.683594 C 250.371094 421.171875 250.320312 420.652344 250.320312 420.132812 L 250.320312 408.609375 C 250.320312 408.089844 250.371094 407.574219 250.472656 407.0625 C 250.574219 406.550781 250.722656 406.050781 250.925781 405.570312 C 251.125 405.089844 251.367188 404.628906 251.660156 404.195312 C 251.949219 403.761719 252.277344 403.363281 252.644531 402.992188 C 253.015625 402.625 253.417969 402.292969 253.851562 402.003906 C 254.285156 401.714844 254.742188 401.46875 255.222656 401.269531 C 255.707031 401.070312 256.203125 400.921875 256.714844 400.820312 C 257.226562 400.714844 257.742188 400.664062 258.265625 400.664062 L 261.367188 400.664062 C 262.195312 400.667969 263.003906 400.542969 263.789062 400.292969 C 264.578125 400.042969 265.308594 399.675781 265.984375 399.195312 C 266.65625 398.71875 267.242188 398.144531 267.734375 397.484375 C 268.230469 396.820312 268.613281 396.097656 268.882812 395.316406 C 269.726562 392.808594 270.738281 390.371094 271.914062 388.003906 C 272.28125 387.257812 272.523438 386.476562 272.644531 385.65625 C 272.765625 384.835938 272.761719 384.015625 272.625 383.195312 C 272.488281 382.378906 272.230469 381.601562 271.851562 380.863281 C 271.472656 380.125 270.988281 379.460938 270.402344 378.875 L 268.207031 376.679688 C 267.835938 376.3125 267.507812 375.910156 267.21875 375.476562 C 266.929688 375.042969 266.683594 374.585938 266.484375 374.101562 C 266.285156 373.621094 266.132812 373.125 266.03125 372.613281 C 265.929688 372.101562 265.878906 371.585938 265.878906 371.0625 C 265.878906 370.542969 265.929688 370.023438 266.03125 369.511719 C 266.132812 369 266.285156 368.503906 266.484375 368.023438 C 266.683594 367.539062 266.929688 367.082031 267.21875 366.648438 C 267.507812 366.214844 267.835938 365.8125 268.207031 365.445312 L 276.351562 357.300781 C 276.71875 356.929688 277.121094 356.601562 277.554688 356.3125 C 277.988281 356.023438 278.445312 355.777344 278.929688 355.578125 C 279.410156 355.378906 279.90625 355.226562 280.417969 355.125 C 280.929688 355.023438 281.445312 354.972656 281.96875 354.972656 C 282.488281 354.972656 283.007812 355.023438 283.519531 355.125 C 284.03125 355.226562 284.527344 355.378906 285.007812 355.578125 C 285.492188 355.777344 285.949219 356.023438 286.382812 356.3125 C 286.816406 356.601562 287.21875 356.929688 287.585938 357.300781 L 289.78125 359.496094 C 290.367188 360.082031 291.03125 360.566406 291.769531 360.945312 C 292.507812 361.324219 293.285156 361.582031 294.101562 361.71875 C 294.921875 361.855469 295.742188 361.859375 296.5625 361.738281 C 297.382812 361.617188 298.164062 361.371094 298.910156 361.003906 C 301.28125 359.828125 303.71875 358.816406 306.226562 357.964844 C 307.011719 357.699219 307.734375 357.316406 308.398438 356.824219 C 309.0625 356.328125 309.636719 355.746094 310.117188 355.070312 C 310.597656 354.398438 310.964844 353.667969 311.214844 352.878906 C 311.46875 352.089844 311.59375 351.28125 311.589844 350.453125 L 311.589844 347.351562 C 311.589844 346.828125 311.640625 346.3125 311.742188 345.800781 C 311.84375 345.289062 311.996094 344.792969 312.195312 344.3125 C 312.394531 343.828125 312.640625 343.371094 312.929688 342.9375 C 313.21875 342.503906 313.546875 342.101562 313.917969 341.734375 C 314.285156 341.363281 314.6875 341.035156 315.121094 340.746094 C 315.554688 340.457031 316.011719 340.210938 316.496094 340.011719 C 316.976562 339.8125 317.472656 339.660156 317.984375 339.558594 C 318.496094 339.457031 319.015625 339.40625 319.535156 339.40625 L 331.054688 339.40625 C 331.578125 339.40625 332.09375 339.457031 332.605469 339.558594 C 333.117188 339.660156 333.613281 339.8125 334.097656 340.011719 C 334.578125 340.210938 335.035156 340.457031 335.46875 340.746094 C 335.902344 341.035156 336.304688 341.367188 336.671875 341.734375 C 337.042969 342.101562 337.371094 342.503906 337.660156 342.9375 C 337.949219 343.371094 338.195312 343.828125 338.394531 344.3125 C 338.59375 344.792969 338.746094 345.289062 338.847656 345.800781 C 338.949219 346.3125 339 346.828125 339 347.351562 L 339 350.453125 C 338.996094 351.28125 339.121094 352.089844 339.375 352.878906 C 339.625 353.667969 339.992188 354.398438 340.472656 355.070312 C 340.957031 355.746094 341.527344 356.328125 342.191406 356.824219 C 342.855469 357.316406 343.582031 357.699219 344.367188 357.964844 C 346.871094 358.8125 349.308594 359.824219 351.679688 360.996094 C 352.425781 361.363281 353.207031 361.609375 354.027344 361.730469 C 354.847656 361.851562 355.667969 361.847656 356.484375 361.710938 C 357.304688 361.574219 358.082031 361.320312 358.820312 360.9375 C 359.558594 360.558594 360.21875 360.074219 360.804688 359.488281 L 363 357.292969 C 363.371094 356.921875 363.773438 356.59375 364.207031 356.304688 C 364.640625 356.015625 365.097656 355.769531 365.578125 355.570312 C 366.0625 355.371094 366.558594 355.222656 367.070312 355.121094 C 367.582031 355.019531 368.097656 354.964844 368.617188 354.964844 C 369.140625 354.964844 369.65625 355.019531 370.167969 355.121094 C 370.679688 355.222656 371.175781 355.371094 371.660156 355.570312 C 372.140625 355.769531 372.597656 356.015625 373.03125 356.304688 C 373.464844 356.59375 373.867188 356.921875 374.234375 357.292969 L 381.703125 364.757812 C 430.976562 294.855469 403.472656 211.769531 403.472656 211.769531 C 403.472656 211.769531 414.621094 251.992188 287.933594 265.402344 C 182.75 276.535156 165.121094 401.820312 162.164062 444.042969 C 163.679688 441.507812 165.230469 438.898438 166.9375 436.316406 C 168.050781 434.605469 169.144531 432.84375 170.324219 431.105469 L 173.933594 425.863281 C 175.128906 424.085938 176.429688 422.351562 177.726562 420.59375 C 178.375 419.714844 179.027344 418.832031 179.683594 417.941406 C 180.335938 417.058594 180.984375 416.160156 181.683594 415.292969 L 185.835938 410.015625 L 186.890625 408.691406 L 187.980469 407.386719 L 190.183594 404.773438 L 192.394531 402.148438 C 193.121094 401.261719 193.914062 400.421875 194.675781 399.558594 C 196.214844 397.84375 197.761719 396.117188 199.3125 394.386719 C 205.652344 387.585938 212.371094 380.964844 219.332031 374.640625 C 226.363281 368.386719 233.636719 362.4375 241.015625 356.902344 L 246.59375 352.867188 C 247.515625 352.210938 248.4375 351.519531 249.378906 350.894531 L 252.195312 349 L 254.996094 347.117188 L 256.378906 346.179688 L 257.792969 345.285156 L 263.398438 341.765625 C 264.324219 341.171875 265.265625 340.632812 266.199219 340.085938 L 268.996094 338.449219 C 270.84375 337.367188 272.671875 336.277344 274.535156 335.296875 L 280.023438 332.335938 C 281.835938 331.375 283.667969 330.488281 285.449219 329.585938 C 288.992188 327.742188 292.558594 326.179688 295.957031 324.589844 C 297.648438 323.777344 299.375 323.109375 301.035156 322.386719 L 305.9375 320.3125 C 309.191406 319.070312 312.285156 317.84375 315.257812 316.753906 C 318.253906 315.71875 321.078125 314.71875 323.75 313.824219 L 331.289062 311.496094 L 332.152344 311.230469 L 333.007812 311 L 334.660156 310.535156 C 335.734375 310.242188 336.761719 309.960938 337.738281 309.699219 L 340.507812 308.949219 C 341.367188 308.703125 342.195312 308.535156 342.957031 308.351562 L 346.832031 307.425781 L 350.0625 306.667969 L 346.917969 307.703125 L 343.136719 308.960938 C 342.398438 309.214844 341.59375 309.449219 340.753906 309.765625 L 338.0625 310.75 L 335.082031 311.84375 L 333.484375 312.433594 L 332.664062 312.726562 L 331.832031 313.066406 L 324.578125 316.015625 C 322.011719 317.128906 319.308594 318.359375 316.445312 319.628906 C 313.613281 320.957031 310.679688 322.429688 307.585938 323.921875 L 302.945312 326.375 C 301.375 327.222656 299.75 328.019531 298.160156 328.964844 C 294.960938 330.808594 291.617188 332.636719 288.304688 334.730469 C 286.640625 335.765625 284.933594 336.777344 283.25 337.867188 L 278.175781 341.222656 C 276.449219 342.332031 274.765625 343.546875 273.054688 344.757812 L 270.46875 346.59375 C 269.609375 347.203125 268.734375 347.804688 267.894531 348.457031 L 262.761719 352.335938 L 261.472656 353.328125 L 260.203125 354.351562 L 257.664062 356.40625 L 255.105469 358.46875 C 254.242188 359.160156 253.425781 359.894531 252.582031 360.609375 L 247.539062 364.945312 C 240.902344 370.890625 234.429688 377.199219 228.234375 383.746094 C 222.109375 390.363281 216.273438 397.210938 210.824219 404.167969 L 206.863281 409.441406 C 206.214844 410.324219 205.535156 411.171875 204.921875 412.070312 L 203.054688 414.730469 L 201.207031 417.375 L 200.285156 418.6875 L 199.402344 420.023438 L 195.925781 425.328125 C 195.339844 426.195312 194.804688 427.09375 194.265625 427.976562 L 192.648438 430.621094 C 191.578125 432.371094 190.5 434.097656 189.527344 435.859375 L 186.578125 441.042969 C 185.625 442.757812 184.75 444.488281 183.851562 446.175781 C 182.019531 449.527344 180.457031 452.90625 178.875 456.125 C 178.808594 456.25 178.753906 456.378906 178.691406 456.503906 C 214.589844 453.136719 245.089844 446.992188 270.996094 438.820312 C 270.207031 437.070312 269.503906 435.28125 268.882812 433.449219 C 268.613281 432.664062 268.234375 431.941406 267.742188 431.273438 C 267.246094 430.609375 266.664062 430.035156 265.988281 429.554688 C 265.316406 429.070312 264.582031 428.703125 263.792969 428.453125 C 263.003906 428.199219 262.195312 428.074219 261.367188 428.074219 Z M 261.367188 428.074219 " fill-opacity="1" fill-rule="nonzero"/></g><path fill="#ffffff" d="M 381.699219 364.757812 C 381 365.75 380.285156 366.738281 379.554688 367.726562 C 380.285156 366.742188 381 365.75 381.699219 364.757812 Z M 381.699219 364.757812 " fill-opacity="1" fill-rule="nonzero"/><g clip-path="url(#c035108e51)"><path fill="#ffffff" d="M 408.941406 237.03125 C 404.929688 249.433594 384.332031 273.121094 287.996094 282.8125 C 223.777344 289.269531 190.574219 334.160156 173.40625 378.957031 C 165.9375 405.132812 163.179688 429.511719 162.164062 444.042969 C 163.675781 441.507812 165.226562 438.898438 166.9375 436.316406 C 168.050781 434.605469 169.144531 432.84375 170.320312 431.105469 L 173.929688 425.863281 C 175.125 424.085938 176.429688 422.351562 177.726562 420.59375 C 178.375 419.714844 179.023438 418.832031 179.679688 417.941406 C 180.335938 417.058594 180.984375 416.160156 181.683594 415.292969 L 185.835938 410.015625 L 186.886719 408.691406 L 187.980469 407.386719 L 190.183594 404.773438 L 192.394531 402.148438 C 193.121094 401.261719 193.914062 400.421875 194.675781 399.558594 L 199.308594 394.394531 C 205.648438 387.59375 212.363281 380.972656 219.328125 374.648438 C 226.359375 368.394531 233.628906 362.445312 241.011719 356.910156 L 246.59375 352.867188 C 247.515625 352.210938 248.4375 351.519531 249.378906 350.894531 L 252.195312 349 L 254.996094 347.117188 L 256.378906 346.179688 L 257.792969 345.285156 L 263.398438 341.765625 C 264.324219 341.171875 265.265625 340.632812 266.199219 340.085938 L 268.996094 338.449219 C 270.84375 337.367188 272.671875 336.277344 274.535156 335.296875 L 280.023438 332.335938 C 281.835938 331.375 283.667969 330.488281 285.449219 329.585938 C 288.992188 327.742188 292.558594 326.179688 295.957031 324.589844 C 297.648438 323.777344 299.375 323.109375 301.035156 322.386719 L 305.9375 320.3125 C 309.191406 319.070312 312.285156 317.84375 315.257812 316.753906 C 318.253906 315.71875 321.078125 314.71875 323.75 313.824219 L 331.289062 311.496094 L 332.152344 311.230469 L 333.007812 311 L 334.660156 310.535156 C 335.734375 310.242188 336.761719 309.960938 337.738281 309.699219 L 340.507812 308.949219 C 341.367188 308.703125 342.195312 308.535156 342.957031 308.351562 L 346.832031 307.425781 L 350.0625 306.667969 L 346.917969 307.703125 L 343.136719 308.960938 C 342.398438 309.214844 341.59375 309.449219 340.753906 309.765625 L 338.0625 310.75 L 335.082031 311.84375 L 333.484375 312.433594 L 332.664062 312.726562 L 331.832031 313.066406 L 324.578125 316.015625 C 322.011719 317.128906 319.308594 318.359375 316.445312 319.628906 C 313.613281 320.957031 310.679688 322.429688 307.585938 323.921875 L 302.945312 326.375 C 301.375 327.222656 299.75 328.019531 298.160156 328.960938 C 294.960938 330.808594 291.617188 332.636719 288.304688 334.730469 C 286.640625 335.761719 284.933594 336.773438 283.25 337.867188 L 278.175781 341.222656 C 276.449219 342.328125 274.765625 343.546875 273.054688 344.753906 L 270.46875 346.59375 C 269.609375 347.203125 268.734375 347.804688 267.894531 348.457031 L 262.761719 352.335938 L 261.472656 353.328125 L 260.203125 354.351562 L 257.664062 356.40625 L 255.105469 358.46875 C 254.242188 359.160156 253.425781 359.894531 252.582031 360.609375 L 247.539062 364.945312 C 240.902344 370.890625 234.429688 377.199219 228.234375 383.746094 C 222.109375 390.363281 216.273438 397.210938 210.824219 404.167969 L 206.863281 409.441406 C 206.214844 410.324219 205.535156 411.171875 204.921875 412.070312 L 203.054688 414.730469 L 201.207031 417.375 L 200.285156 418.6875 L 199.402344 420.023438 L 195.925781 425.328125 C 195.339844 426.195312 194.804688 427.09375 194.265625 427.976562 L 192.648438 430.621094 C 191.578125 432.371094 190.5 434.097656 189.527344 435.859375 L 186.578125 441.042969 C 185.625 442.757812 184.75 444.488281 183.851562 446.175781 C 182.019531 449.527344 180.457031 452.90625 178.875 456.125 C 178.808594 456.25 178.753906 456.378906 178.691406 456.503906 C 214.589844 453.136719 245.089844 446.992188 270.996094 438.820312 C 270.207031 437.070312 269.503906 435.28125 268.882812 433.449219 C 268.613281 432.664062 268.234375 431.941406 267.742188 431.273438 C 267.246094 430.609375 266.664062 430.035156 265.988281 429.554688 C 265.316406 429.070312 264.582031 428.703125 263.792969 428.453125 C 263.003906 428.199219 262.195312 428.074219 261.367188 428.074219 L 258.265625 428.074219 C 257.742188 428.074219 257.226562 428.023438 256.714844 427.921875 C 256.203125 427.820312 255.707031 427.671875 255.222656 427.46875 C 254.742188 427.269531 254.285156 427.027344 253.851562 426.738281 C 253.417969 426.445312 253.015625 426.117188 252.648438 425.75 C 252.277344 425.378906 251.949219 424.980469 251.660156 424.546875 C 251.367188 424.113281 251.125 423.652344 250.925781 423.171875 C 250.726562 422.691406 250.574219 422.191406 250.472656 421.683594 C 250.371094 421.171875 250.320312 420.652344 250.320312 420.132812 L 250.320312 408.609375 C 250.320312 408.089844 250.371094 407.574219 250.472656 407.0625 C 250.574219 406.550781 250.722656 406.050781 250.925781 405.570312 C 251.125 405.089844 251.367188 404.628906 251.660156 404.195312 C 251.949219 403.761719 252.277344 403.363281 252.644531 402.992188 C 253.015625 402.625 253.417969 402.292969 253.851562 402.003906 C 254.285156 401.714844 254.742188 401.46875 255.222656 401.269531 C 255.707031 401.070312 256.203125 400.921875 256.714844 400.820312 C 257.226562 400.714844 257.742188 400.664062 258.265625 400.664062 L 261.367188 400.664062 C 262.195312 400.667969 263.003906 400.542969 263.789062 400.292969 C 264.578125 400.042969 265.308594 399.675781 265.984375 399.195312 C 266.65625 398.71875 267.242188 398.144531 267.734375 397.484375 C 268.230469 396.820312 268.613281 396.097656 268.882812 395.316406 C 269.726562 392.808594 270.738281 390.371094 271.914062 388.003906 C 272.28125 387.257812 272.523438 386.476562 272.644531 385.65625 C 272.765625 384.835938 272.761719 384.015625 272.625 383.195312 C 272.488281 382.378906 272.230469 381.601562 271.851562 380.863281 C 271.472656 380.125 270.988281 379.460938 270.402344 378.875 L 268.207031 376.679688 C 267.835938 376.3125 267.507812 375.910156 267.21875 375.476562 C 266.929688 375.042969 266.683594 374.585938 266.484375 374.101562 C 266.285156 373.621094 266.132812 373.125 266.03125 372.613281 C 265.929688 372.101562 265.878906 371.585938 265.878906 371.0625 C 265.878906 370.542969 265.929688 370.023438 266.03125 369.511719 C 266.132812 369 266.285156 368.503906 266.484375 368.023438 C 266.683594 367.539062 266.929688 367.082031 267.21875 366.648438 C 267.507812 366.214844 267.835938 365.8125 268.207031 365.445312 L 276.351562 357.300781 C 276.71875 356.929688 277.121094 356.601562 277.554688 356.3125 C 277.988281 356.023438 278.445312 355.777344 278.929688 355.578125 C 279.410156 355.378906 279.90625 355.226562 280.417969 355.125 C 280.929688 355.023438 281.445312 354.972656 281.96875 354.972656 C 282.488281 354.972656 283.007812 355.023438 283.519531 355.125 C 284.03125 355.226562 284.527344 355.378906 285.007812 355.578125 C 285.492188 355.777344 285.949219 356.023438 286.382812 356.3125 C 286.816406 356.601562 287.21875 356.929688 287.585938 357.300781 L 289.78125 359.496094 C 290.367188 360.082031 291.03125 360.566406 291.769531 360.945312 C 292.507812 361.324219 293.285156 361.582031 294.101562 361.71875 C 294.921875 361.855469 295.742188 361.859375 296.5625 361.738281 C 297.382812 361.617188 298.164062 361.371094 298.910156 361.003906 C 301.28125 359.828125 303.71875 358.816406 306.226562 357.964844 C 307.011719 357.699219 307.734375 357.316406 308.398438 356.824219 C 309.0625 356.328125 309.636719 355.746094 310.117188 355.070312 C 310.597656 354.398438 310.964844 353.667969 311.214844 352.878906 C 311.46875 352.089844 311.59375 351.28125 311.589844 350.453125 L 311.589844 347.351562 C 311.589844 346.828125 311.640625 346.3125 311.742188 345.800781 C 311.84375 345.289062 311.996094 344.792969 312.195312 344.3125 C 312.394531 343.828125 312.640625 343.371094 312.929688 342.9375 C 313.21875 342.503906 313.546875 342.101562 313.917969 341.734375 C 314.285156 341.363281 314.6875 341.035156 315.121094 340.746094 C 315.554688 340.457031 316.011719 340.210938 316.496094 340.011719 C 316.976562 339.8125 317.472656 339.660156 317.984375 339.558594 C 318.496094 339.457031 319.015625 339.40625 319.535156 339.40625 L 331.054688 339.40625 C 331.578125 339.40625 332.09375 339.457031 332.605469 339.558594 C 333.117188 339.660156 333.613281 339.8125 334.097656 340.011719 C 334.578125 340.210938 335.035156 340.457031 335.46875 340.746094 C 335.902344 341.035156 336.304688 341.367188 336.671875 341.734375 C 337.042969 342.101562 337.371094 342.503906 337.660156 342.9375 C 337.949219 343.371094 338.195312 343.828125 338.394531 344.3125 C 338.59375 344.792969 338.746094 345.289062 338.847656 345.800781 C 338.949219 346.3125 339 346.828125 339 347.351562 L 339 350.453125 C 338.996094 351.28125 339.121094 352.089844 339.375 352.878906 C 339.625 353.667969 339.992188 354.398438 340.472656 355.070312 C 340.957031 355.746094 341.527344 356.328125 342.191406 356.824219 C 342.855469 357.316406 343.582031 357.699219 344.367188 357.964844 C 346.871094 358.8125 349.308594 359.824219 351.679688 360.996094 C 352.425781 361.363281 353.207031 361.609375 354.027344 361.730469 C 354.847656 361.851562 355.667969 361.847656 356.484375 361.710938 C 357.304688 361.574219 358.082031 361.320312 358.820312 360.9375 C 359.558594 360.558594 360.21875 360.074219 360.804688 359.488281 L 363 357.292969 C 363.371094 356.921875 363.773438 356.59375 364.207031 356.304688 C 364.640625 356.015625 365.097656 355.769531 365.578125 355.570312 C 366.0625 355.371094 366.558594 355.222656 367.070312 355.121094 C 367.582031 355.019531 368.097656 354.964844 368.617188 354.964844 C 369.140625 354.964844 369.65625 355.019531 370.167969 355.121094 C 370.679688 355.222656 371.175781 355.371094 371.660156 355.570312 C 372.140625 355.769531 372.597656 356.015625 373.03125 356.304688 C 373.464844 356.59375 373.867188 356.921875 374.234375 357.292969 L 381.699219 364.753906 C 414.128906 318.734375 413.300781 267.011719 408.941406 237.03125 Z M 408.941406 237.03125 " fill-opacity="1" fill-rule="nonzero"/></g><g clip-path="url(#78ed54efff)"><path fill="#ffffff" d="M 288 282.8125 C 384.339844 273.121094 404.933594 249.433594 408.945312 237.03125 C 406.6875 221.472656 403.476562 211.769531 403.476562 211.769531 C 403.476562 211.769531 414.625 251.992188 287.933594 265.402344 C 218.957031 272.703125 187.632812 329.09375 173.410156 378.957031 C 190.574219 334.160156 223.777344 289.269531 288 282.8125 Z M 288 282.8125 " fill-opacity="1" fill-rule="nonzero"/></g><path fill="#ffffff" d="M 376.980469 371.105469 C 376.234375 372.058594 375.472656 373.007812 374.699219 373.949219 C 375.476562 373.003906 376.234375 372.054688 376.980469 371.105469 Z M 376.980469 371.105469 " fill-opacity="1" fill-rule="nonzero"/><path fill="#ffffff" d="M 357.09375 383.210938 L 356.042969 382.371094 C 355.707031 382.085938 355.285156 381.75 354.769531 381.382812 C 354.253906 381.015625 353.691406 380.566406 353.011719 380.121094 C 351.414062 379.023438 349.753906 378.023438 348.039062 377.121094 C 345.828125 375.972656 343.542969 375 341.179688 374.210938 C 338.40625 373.296875 335.574219 372.648438 332.683594 372.261719 C 331.113281 372.058594 329.539062 371.9375 327.960938 371.902344 L 325.5625 371.902344 C 324.71875 371.949219 323.808594 371.960938 322.992188 372.042969 C 322.171875 372.125 321.375 372.179688 320.523438 372.328125 L 319.265625 372.515625 L 318.007812 372.765625 C 316.328125 373.09375 314.660156 373.578125 312.992188 374.082031 C 309.621094 375.175781 306.441406 376.667969 303.453125 378.566406 C 300.445312 380.4375 297.710938 382.640625 295.242188 385.179688 C 294.035156 386.421875 292.894531 387.726562 291.824219 389.085938 C 290.785156 390.425781 289.832031 391.824219 288.960938 393.277344 C 287.292969 396.046875 285.941406 398.964844 284.902344 402.027344 C 283.984375 404.796875 283.324219 407.625 282.921875 410.515625 C 282.589844 412.988281 282.449219 415.46875 282.5 417.957031 C 282.550781 419.898438 282.714844 421.828125 282.988281 423.746094 C 283.230469 425.347656 283.46875 426.609375 283.667969 427.460938 C 283.863281 428.3125 283.96875 428.773438 283.96875 428.773438 C 283.96875 428.773438 283.761719 428.351562 283.417969 427.542969 C 282.917969 426.367188 282.484375 425.167969 282.109375 423.945312 C 281.515625 422.035156 281.070312 420.089844 280.773438 418.109375 C 280.601562 416.976562 280.460938 415.710938 280.371094 414.429688 C 280.285156 413.152344 280.269531 411.742188 280.332031 410.300781 C 280.429688 407.175781 280.871094 404.101562 281.664062 401.074219 C 282.097656 399.417969 282.617188 397.785156 283.222656 396.183594 C 283.875 394.511719 284.632812 392.886719 285.5 391.3125 C 287.289062 387.980469 289.476562 384.929688 292.0625 382.167969 C 294.734375 379.296875 297.730469 376.824219 301.058594 374.746094 C 304.398438 372.695312 307.9375 371.089844 311.683594 369.933594 C 313.507812 369.371094 315.367188 368.941406 317.257812 368.648438 L 318.640625 368.433594 L 320.023438 368.285156 C 320.949219 368.167969 321.898438 368.144531 322.824219 368.085938 C 323.746094 368.027344 324.578125 368.066406 325.449219 368.054688 C 325.765625 368.054688 325.910156 368.074219 326.164062 368.082031 L 326.832031 368.113281 C 327.273438 368.144531 327.714844 368.15625 328.152344 368.203125 C 329.855469 368.363281 331.546875 368.609375 333.226562 368.949219 C 336.296875 369.566406 339.257812 370.523438 342.109375 371.808594 C 344.507812 372.867188 346.777344 374.152344 348.921875 375.65625 C 350.566406 376.800781 352.113281 378.058594 353.5625 379.4375 C 354.175781 379.984375 354.683594 380.53125 355.121094 380.996094 C 355.5625 381.457031 355.929688 381.859375 356.210938 382.195312 Z M 357.09375 383.210938 " fill-opacity="1" fill-rule="nonzero"/></svg>