<svg xmlns="http://www.w3.org/2000/svg" xmlns:xlink="http://www.w3.org/1999/xlink" width="816" zoomAndPan="magnify" viewBox="0 0 612 791.999994" height="1056" preserveAspectRatio="xMidYMid meet" version="1.0"><defs><g/><clipPath id="6b7b52870e"><path d="M 108.023438 142.253906 L 503.429688 142.253906 L 503.429688 537.660156 L 108.023438 537.660156 Z M 108.023438 142.253906 " clip-rule="nonzero"/></clipPath><clipPath id="16ec139f36"><path d="M 305.726562 142.253906 C 196.539062 142.253906 108.023438 230.769531 108.023438 339.957031 C 108.023438 449.144531 196.539062 537.660156 305.726562 537.660156 C 414.914062 537.660156 503.429688 449.144531 503.429688 339.957031 C 503.429688 230.769531 414.914062 142.253906 305.726562 142.253906 Z M 305.726562 142.253906 " clip-rule="nonzero"/></clipPath><clipPath id="0f82b6e2f5"><path d="M 139.507812 301 L 462.367188 301 L 462.367188 415.070312 L 139.507812 415.070312 Z M 139.507812 301 " clip-rule="nonzero"/></clipPath></defs><g clip-path="url(#6b7b52870e)"><g clip-path="url(#16ec139f36)"><path fill="#118f31" d="M 108.023438 142.253906 L 503.429688 142.253906 L 503.429688 537.660156 L 108.023438 537.660156 Z M 108.023438 142.253906 " fill-opacity="1" fill-rule="nonzero"/></g></g><g fill="#000000" fill-opacity="1"><g transform="translate(152.586147, 641.843742)"><g><path d="M 36.484375 -33.125 C 36.484375 -29.226562 35.148438 -25.992188 32.484375 -23.421875 C 29.828125 -20.847656 25.765625 -19.5625 20.296875 -19.5625 L 11.296875 -19.5625 L 11.296875 0 L 5.171875 0 L 5.171875 -46.84375 L 20.296875 -46.84375 C 25.578125 -46.84375 29.59375 -45.5625 32.34375 -43 C 35.101562 -40.445312 36.484375 -37.15625 36.484375 -33.125 Z M 20.296875 -24.59375 C 23.703125 -24.59375 26.207031 -25.332031 27.8125 -26.8125 C 29.425781 -28.289062 30.234375 -30.394531 30.234375 -33.125 C 30.234375 -38.90625 26.921875 -41.796875 20.296875 -41.796875 L 11.296875 -41.796875 L 11.296875 -24.59375 Z M 20.296875 -24.59375 "/></g></g></g><g fill="#000000" fill-opacity="1"><g transform="translate(191.498359, 641.843742)"><g><path d="M 29.84375 0 L 18.6875 -19.15625 L 11.296875 -19.15625 L 11.296875 0 L 5.171875 0 L 5.171875 -46.84375 L 20.296875 -46.84375 C 23.835938 -46.84375 26.828125 -46.238281 29.265625 -45.03125 C 31.703125 -43.820312 33.523438 -42.1875 34.734375 -40.125 C 35.953125 -38.0625 36.5625 -35.707031 36.5625 -33.0625 C 36.5625 -29.832031 35.628906 -26.984375 33.765625 -24.515625 C 31.910156 -22.054688 29.125 -20.425781 25.40625 -19.625 L 37.15625 0 Z M 11.296875 -24.0625 L 20.296875 -24.0625 C 23.609375 -24.0625 26.09375 -24.878906 27.75 -26.515625 C 29.40625 -28.148438 30.234375 -30.332031 30.234375 -33.0625 C 30.234375 -35.84375 29.414062 -37.992188 27.78125 -39.515625 C 26.144531 -41.035156 23.648438 -41.796875 20.296875 -41.796875 L 11.296875 -41.796875 Z M 11.296875 -24.0625 "/></g></g></g><g fill="#000000" fill-opacity="1"><g transform="translate(232.359571, 641.843742)"><g><path d="M 11.296875 -46.84375 L 11.296875 0 L 5.171875 0 L 5.171875 -46.84375 Z M 11.296875 -46.84375 "/></g></g></g><g fill="#000000" fill-opacity="1"><g transform="translate(248.892265, 641.843742)"><g><path d="M 52.6875 -46.5 L 52.6875 0 L 46.578125 0 L 46.578125 -34.671875 L 31.109375 0 L 26.8125 0 L 11.296875 -34.75 L 11.296875 0 L 5.171875 0 L 5.171875 -46.5 L 11.765625 -46.5 L 28.96875 -8.0625 L 46.171875 -46.5 Z M 52.6875 -46.5 "/></g></g></g><g fill="#000000" fill-opacity="1"><g transform="translate(306.756606, 641.843742)"><g><path d="M 32.859375 -10.421875 L 12.4375 -10.421875 L 8.671875 0 L 2.21875 0 L 19.15625 -46.578125 L 26.203125 -46.578125 L 43.078125 0 L 36.625 0 Z M 31.109375 -15.390625 L 22.640625 -39.046875 L 14.1875 -15.390625 Z M 31.109375 -15.390625 "/></g></g></g><g fill="#000000" fill-opacity="1"><g transform="translate(352.053421, 641.843742)"><g><path d="M 29.84375 0 L 18.6875 -19.15625 L 11.296875 -19.15625 L 11.296875 0 L 5.171875 0 L 5.171875 -46.84375 L 20.296875 -46.84375 C 23.835938 -46.84375 26.828125 -46.238281 29.265625 -45.03125 C 31.703125 -43.820312 33.523438 -42.1875 34.734375 -40.125 C 35.953125 -38.0625 36.5625 -35.707031 36.5625 -33.0625 C 36.5625 -29.832031 35.628906 -26.984375 33.765625 -24.515625 C 31.910156 -22.054688 29.125 -20.425781 25.40625 -19.625 L 37.15625 0 Z M 11.296875 -24.0625 L 20.296875 -24.0625 C 23.609375 -24.0625 26.09375 -24.878906 27.75 -26.515625 C 29.40625 -28.148438 30.234375 -30.332031 30.234375 -33.0625 C 30.234375 -35.84375 29.414062 -37.992188 27.78125 -39.515625 C 26.144531 -41.035156 23.648438 -41.796875 20.296875 -41.796875 L 11.296875 -41.796875 Z M 11.296875 -24.0625 "/></g></g></g><g fill="#000000" fill-opacity="1"><g transform="translate(392.914633, 641.843742)"><g><path d="M 11.296875 -46.84375 L 11.296875 0 L 5.171875 0 L 5.171875 -46.84375 Z M 11.296875 -46.84375 "/></g></g></g><g fill="#000000" fill-opacity="1"><g transform="translate(409.447326, 641.843742)"><g><path d="M 26.40625 0.46875 C 22.0625 0.46875 18.097656 -0.546875 14.515625 -2.578125 C 10.929688 -4.617188 8.097656 -7.460938 6.015625 -11.109375 C 3.929688 -14.765625 2.890625 -18.878906 2.890625 -23.453125 C 2.890625 -28.023438 3.929688 -32.132812 6.015625 -35.78125 C 8.097656 -39.4375 10.929688 -42.28125 14.515625 -44.3125 C 18.097656 -46.351562 22.0625 -47.375 26.40625 -47.375 C 30.800781 -47.375 34.789062 -46.351562 38.375 -44.3125 C 41.957031 -42.28125 44.78125 -39.445312 46.84375 -35.8125 C 48.90625 -32.1875 49.9375 -28.066406 49.9375 -23.453125 C 49.9375 -18.835938 48.90625 -14.710938 46.84375 -11.078125 C 44.78125 -7.453125 41.957031 -4.617188 38.375 -2.578125 C 34.789062 -0.546875 30.800781 0.46875 26.40625 0.46875 Z M 26.40625 -4.84375 C 29.675781 -4.84375 32.617188 -5.601562 35.234375 -7.125 C 37.859375 -8.644531 39.921875 -10.816406 41.421875 -13.640625 C 42.929688 -16.460938 43.6875 -19.734375 43.6875 -23.453125 C 43.6875 -27.210938 42.929688 -30.492188 41.421875 -33.296875 C 39.921875 -36.097656 37.875 -38.257812 35.28125 -39.78125 C 32.6875 -41.300781 29.726562 -42.0625 26.40625 -42.0625 C 23.09375 -42.0625 20.132812 -41.300781 17.53125 -39.78125 C 14.9375 -38.257812 12.890625 -36.097656 11.390625 -33.296875 C 9.890625 -30.492188 9.140625 -27.210938 9.140625 -23.453125 C 9.140625 -19.734375 9.890625 -16.460938 11.390625 -13.640625 C 12.890625 -10.816406 14.945312 -8.644531 17.5625 -7.125 C 20.1875 -5.601562 23.132812 -4.84375 26.40625 -4.84375 Z M 26.40625 -4.84375 "/></g></g></g><g clip-path="url(#0f82b6e2f5)"><path fill="#ffffff" d="M 445.34375 311.6875 C 428.191406 306.640625 410.296875 302.71875 392.503906 301.539062 C 363.328125 299.609375 292.664062 324.335938 280.257812 320.554688 C 246.335938 310.222656 182.097656 309.386719 155.371094 309.128906 C 152.75 309.101562 141.875 306.820312 139.523438 306.722656 C 165.996094 356.199219 221.304688 409.863281 293.796875 415.167969 C 304.390625 415.945312 322.753906 415.96875 345.738281 410.527344 C 408.773438 395.597656 445.269531 348.632812 462.105469 316.875 C 459.136719 315.953125 448.105469 312.496094 445.34375 311.683594 Z M 251.132812 398.058594 C 228.488281 383.214844 207.28125 366.175781 185.535156 349.96875 C 184.550781 349.234375 183.929688 348.015625 183.085938 346.953125 C 206.378906 340.398438 273.0625 378.972656 285.910156 409.269531 C 272.515625 405.152344 260.238281 404.027344 251.132812 398.058594 Z M 313.886719 395.164062 C 278.660156 357.066406 236.253906 332.011719 184.117188 325.097656 C 182.394531 324.871094 180.703125 324.382812 179.027344 323.898438 C 178.769531 323.824219 178.691406 323.125 178.53125 322.714844 C 235.09375 309.601562 306.519531 341.28125 349.484375 400.027344 C 330.78125 410.085938 326.796875 409.128906 313.886719 395.164062 Z M 419.53125 351.277344 C 405.972656 358.542969 392.085938 365.257812 378.878906 373.117188 C 362.265625 383 362.503906 383.398438 351.078125 365.4375 C 375.222656 350.789062 400.144531 343.226562 428.570312 346.046875 C 425.5625 347.792969 422.597656 349.632812 419.53125 351.277344 Z M 431.964844 324.96875 C 401.410156 323.089844 372.027344 329.273438 344.632812 341.765625 C 329.273438 348.769531 319.871094 344.476562 308.300781 331.828125 C 353.539062 310.371094 443.796875 323.800781 443.894531 325.003906 C 439.917969 325.003906 435.925781 325.210938 431.964844 324.96875 Z M 431.964844 324.96875 " fill-opacity="1" fill-rule="nonzero"/></g><path fill="#ffffff" d="M 280.335938 263.585938 C 277.40625 263.453125 274.492188 262.988281 271.445312 262.660156 C 271.519531 261.984375 271.574219 261.472656 271.628906 260.960938 C 271.945312 258.070312 272.269531 255.183594 272.558594 252.292969 C 272.59375 251.917969 272.484375 251.214844 272.335938 251.183594 C 271.167969 250.941406 271.671875 250.054688 271.835938 249.609375 C 272.035156 249.066406 272.570312 248.546875 273.089844 248.253906 C 273.546875 248 274.1875 248.070312 274.738281 248 C 274.84375 247.035156 274.941406 246.113281 275.039062 245.207031 C 271.859375 244.457031 268.777344 246.523438 268.757812 249.5625 C 268.753906 250.070312 268.082031 250.574219 267.714844 251.078125 C 267.589844 251.011719 267.464844 250.945312 267.34375 250.878906 C 266.992188 254.097656 266.582031 257.308594 266.324219 260.53125 C 266.222656 261.804688 265.804688 262.082031 264.5625 261.941406 C 256.511719 261.011719 248.457031 260.144531 240.402344 259.308594 C 239.390625 259.207031 238.347656 259.433594 237.316406 259.453125 C 236.996094 259.457031 236.5625 259.378906 236.367188 259.164062 C 235.21875 257.929688 234.128906 256.644531 232.828125 255.15625 C 233.707031 254.574219 234.308594 254.253906 234.8125 253.824219 C 235.648438 253.113281 235.828125 252.171875 235.167969 251.292969 C 234.457031 250.351562 233.429688 250.25 232.511719 250.960938 C 230.0625 252.859375 227.648438 254.800781 225.269531 256.78125 C 224.394531 257.515625 224.230469 258.507812 225.03125 259.425781 C 225.820312 260.328125 226.777344 260.324219 227.671875 259.566406 C 228.175781 259.144531 228.578125 258.601562 229.066406 258.070312 C 231.214844 260.738281 233.101562 263.070312 234.96875 265.417969 C 235.160156 265.660156 235.34375 266.023438 235.316406 266.308594 C 235 269.515625 234.640625 272.71875 234.273438 276.078125 C 232.585938 275.894531 231.078125 275.761719 229.582031 275.542969 C 229.277344 275.5 228.902344 275.183594 228.765625 274.894531 C 227.832031 272.941406 226.980469 270.945312 226.046875 268.992188 C 225.292969 267.410156 224.652344 265.730469 223.640625 264.324219 C 218.808594 257.613281 212.148438 254.300781 203.914062 254.113281 C 197.378906 253.96875 191.675781 257.707031 189.285156 263.578125 C 188.875 264.589844 188.351562 265.683594 187.566406 266.398438 C 180.898438 272.480469 177.847656 279.96875 178.65625 288.953125 C 179.714844 300.71875 188.914062 310.53125 200.539062 312.425781 C 212.949219 314.449219 225.097656 307.515625 229.5625 295.816406 C 229.925781 294.871094 230.351562 294.664062 231.34375 294.78125 C 238.277344 295.59375 245.226562 296.332031 252.167969 297.089844 C 257.644531 297.6875 263.117188 298.277344 268.59375 298.875 C 268.714844 299.027344 268.839844 299.183594 268.964844 299.339844 C 268.5625 299.710938 268.21875 300.253906 267.746094 300.417969 C 263.722656 301.808594 261.203125 304.511719 260.308594 308.691406 C 259.4375 312.757812 261.285156 317.207031 264.855469 319.644531 C 268.265625 321.972656 273.304688 321.984375 276.699219 319.667969 C 283.3125 315.160156 283.1875 305.949219 276.472656 301.578125 C 276.128906 301.355469 275.707031 300.898438 275.714844 300.5625 C 275.757812 299.253906 275.957031 297.953125 276.113281 296.539062 C 276.886719 296.621094 277.445312 296.683594 278.007812 296.742188 C 281.378906 297.109375 282.226562 296.425781 282.601562 293.011719 C 283.453125 285.195312 284.203125 277.367188 285.195312 269.570312 C 285.601562 266.375 283.601562 263.734375 280.332031 263.585938 Z M 203.6875 301.273438 C 195.363281 301.140625 188.714844 294.285156 188.847656 285.957031 C 188.976562 277.628906 195.832031 270.984375 204.160156 271.113281 C 212.488281 271.246094 219.136719 278.101562 219.003906 286.429688 C 218.875 294.757812 212.015625 301.402344 203.6875 301.273438 Z M 276.316406 310.320312 C 276.269531 313.371094 273.757812 315.804688 270.707031 315.757812 C 267.65625 315.707031 265.226562 313.199219 265.273438 310.148438 C 265.320312 307.097656 267.832031 304.664062 270.882812 304.710938 C 273.933594 304.761719 276.367188 307.269531 276.316406 310.320312 Z M 276.316406 310.320312 " fill-opacity="1" fill-rule="nonzero"/></svg>