<svg xmlns="http://www.w3.org/2000/svg" xmlns:xlink="http://www.w3.org/1999/xlink" width="816" zoomAndPan="magnify" viewBox="0 0 612 791.999994" height="1056" preserveAspectRatio="xMidYMid meet" version="1.0"><defs><g/><clipPath id="fa5605ba1a"><path d="M 133.296875 210.09375 L 457.851562 210.09375 L 457.851562 534.648438 L 133.296875 534.648438 Z M 133.296875 210.09375 " clip-rule="nonzero"/></clipPath><clipPath id="6febd301c2"><path d="M 295.574219 210.09375 C 205.949219 210.09375 133.296875 282.75 133.296875 372.371094 C 133.296875 461.996094 205.949219 534.648438 295.574219 534.648438 C 385.195312 534.648438 457.851562 461.996094 457.851562 372.371094 C 457.851562 282.75 385.195312 210.09375 295.574219 210.09375 Z M 295.574219 210.09375 " clip-rule="nonzero"/></clipPath><clipPath id="e52709986f"><path d="M 149.859375 248.296875 L 434 248.296875 L 434 402 L 149.859375 402 Z M 149.859375 248.296875 " clip-rule="nonzero"/></clipPath><clipPath id="52009d23a9"><path d="M 304 405 L 396 405 L 396 496.066406 L 304 496.066406 Z M 304 405 " clip-rule="nonzero"/></clipPath></defs><g clip-path="url(#fa5605ba1a)"><g clip-path="url(#6febd301c2)"><path fill="#118f31" d="M 133.296875 210.09375 L 457.851562 210.09375 L 457.851562 534.648438 L 133.296875 534.648438 Z M 133.296875 210.09375 " fill-opacity="1" fill-rule="nonzero"/></g></g><g fill="#000000" fill-opacity="1"><g transform="translate(157.807231, 621.071932)"><g><path d="M 27.90625 -38.4375 L 27.90625 -34.359375 L 17.421875 -34.359375 L 17.421875 0 L 12.40625 0 L 12.40625 -34.359375 L 1.875 -34.359375 L 1.875 -38.4375 Z M 27.90625 -38.4375 "/></g></g></g><g fill="#000000" fill-opacity="1"><g transform="translate(187.650692, 621.071932)"><g><path d="M 9.265625 -34.359375 L 9.265625 -21.515625 L 23.28125 -21.515625 L 23.28125 -17.375 L 9.265625 -17.375 L 9.265625 -4.140625 L 24.9375 -4.140625 L 24.9375 0 L 4.25 0 L 4.25 -38.5 L 24.9375 -38.5 L 24.9375 -34.359375 Z M 9.265625 -34.359375 "/></g></g></g><g fill="#000000" fill-opacity="1"><g transform="translate(215.949524, 621.071932)"><g><path d="M 24.484375 0 L 15.328125 -15.71875 L 9.265625 -15.71875 L 9.265625 0 L 4.25 0 L 4.25 -38.4375 L 16.65625 -38.4375 C 19.5625 -38.4375 22.015625 -37.941406 24.015625 -36.953125 C 26.023438 -35.960938 27.523438 -34.617188 28.515625 -32.921875 C 29.503906 -31.234375 30 -29.304688 30 -27.140625 C 30 -24.492188 29.234375 -22.15625 27.703125 -20.125 C 26.179688 -18.101562 23.894531 -16.765625 20.84375 -16.109375 L 30.5 0 Z M 9.265625 -19.75 L 16.65625 -19.75 C 19.375 -19.75 21.410156 -20.414062 22.765625 -21.75 C 24.128906 -23.09375 24.8125 -24.890625 24.8125 -27.140625 C 24.8125 -29.421875 24.140625 -31.1875 22.796875 -32.4375 C 21.460938 -33.6875 19.414062 -34.3125 16.65625 -34.3125 L 9.265625 -34.3125 Z M 9.265625 -19.75 "/></g></g></g><g fill="#000000" fill-opacity="1"><g transform="translate(249.488916, 621.071932)"><g><path d="M 2.375 -19.25 C 2.375 -23 3.21875 -26.367188 4.90625 -29.359375 C 6.601562 -32.359375 8.910156 -34.703125 11.828125 -36.390625 C 14.753906 -38.085938 18 -38.9375 21.5625 -38.9375 C 25.757812 -38.9375 29.421875 -37.925781 32.546875 -35.90625 C 35.671875 -33.882812 37.945312 -31.015625 39.375 -27.296875 L 33.375 -27.296875 C 32.300781 -29.617188 30.765625 -31.40625 28.765625 -32.65625 C 26.765625 -33.90625 24.363281 -34.53125 21.5625 -34.53125 C 18.882812 -34.53125 16.476562 -33.90625 14.34375 -32.65625 C 12.207031 -31.40625 10.53125 -29.628906 9.3125 -27.328125 C 8.101562 -25.023438 7.5 -22.332031 7.5 -19.25 C 7.5 -16.195312 8.101562 -13.519531 9.3125 -11.21875 C 10.53125 -8.925781 12.207031 -7.15625 14.34375 -5.90625 C 16.476562 -4.65625 18.882812 -4.03125 21.5625 -4.03125 C 24.363281 -4.03125 26.765625 -4.644531 28.765625 -5.875 C 30.765625 -7.101562 32.300781 -8.878906 33.375 -11.203125 L 39.375 -11.203125 C 37.945312 -7.523438 35.671875 -4.679688 32.546875 -2.671875 C 29.421875 -0.671875 25.757812 0.328125 21.5625 0.328125 C 18 0.328125 14.753906 -0.503906 11.828125 -2.171875 C 8.910156 -3.847656 6.601562 -6.175781 4.90625 -9.15625 C 3.21875 -12.132812 2.375 -15.5 2.375 -19.25 Z M 2.375 -19.25 "/></g></g></g><g fill="#000000" fill-opacity="1"><g transform="translate(292.075135, 621.071932)"><g><path d="M 9.265625 -38.4375 L 9.265625 0 L 4.25 0 L 4.25 -38.4375 Z M 9.265625 -38.4375 "/></g></g></g><g fill="#000000" fill-opacity="1"><g transform="translate(305.645376, 621.071932)"><g><path d="M 26.96875 -8.546875 L 10.203125 -8.546875 L 7.109375 0 L 1.8125 0 L 15.71875 -38.21875 L 21.515625 -38.21875 L 35.359375 0 L 30.0625 0 Z M 25.53125 -12.625 L 18.59375 -32.046875 L 11.640625 -12.625 Z M 25.53125 -12.625 "/></g></g></g><g fill="#000000" fill-opacity="1"><g transform="translate(342.825566, 621.071932)"><g><path d="M 24.484375 0 L 15.328125 -15.71875 L 9.265625 -15.71875 L 9.265625 0 L 4.25 0 L 4.25 -38.4375 L 16.65625 -38.4375 C 19.5625 -38.4375 22.015625 -37.941406 24.015625 -36.953125 C 26.023438 -35.960938 27.523438 -34.617188 28.515625 -32.921875 C 29.503906 -31.234375 30 -29.304688 30 -27.140625 C 30 -24.492188 29.234375 -22.15625 27.703125 -20.125 C 26.179688 -18.101562 23.894531 -16.765625 20.84375 -16.109375 L 30.5 0 Z M 9.265625 -19.75 L 16.65625 -19.75 C 19.375 -19.75 21.410156 -20.414062 22.765625 -21.75 C 24.128906 -23.09375 24.8125 -24.890625 24.8125 -27.140625 C 24.8125 -29.421875 24.140625 -31.1875 22.796875 -32.4375 C 21.460938 -33.6875 19.414062 -34.3125 16.65625 -34.3125 L 9.265625 -34.3125 Z M 9.265625 -19.75 "/></g></g></g><g fill="#000000" fill-opacity="1"><g transform="translate(376.364958, 621.071932)"><g><path d="M 9.265625 -38.4375 L 9.265625 0 L 4.25 0 L 4.25 -38.4375 Z M 9.265625 -38.4375 "/></g></g></g><g fill="#000000" fill-opacity="1"><g transform="translate(389.935199, 621.071932)"><g><path d="M 21.671875 0.390625 C 18.109375 0.390625 14.851562 -0.445312 11.90625 -2.125 C 8.96875 -3.800781 6.644531 -6.132812 4.9375 -9.125 C 3.226562 -12.125 2.375 -15.5 2.375 -19.25 C 2.375 -23 3.226562 -26.367188 4.9375 -29.359375 C 6.644531 -32.359375 8.96875 -34.695312 11.90625 -36.375 C 14.851562 -38.050781 18.109375 -38.890625 21.671875 -38.890625 C 25.273438 -38.890625 28.546875 -38.050781 31.484375 -36.375 C 34.429688 -34.695312 36.75 -32.367188 38.4375 -29.390625 C 40.132812 -26.421875 40.984375 -23.039062 40.984375 -19.25 C 40.984375 -15.457031 40.132812 -12.070312 38.4375 -9.09375 C 36.75 -6.125 34.429688 -3.800781 31.484375 -2.125 C 28.546875 -0.445312 25.273438 0.390625 21.671875 0.390625 Z M 21.671875 -3.96875 C 24.359375 -3.96875 26.773438 -4.59375 28.921875 -5.84375 C 31.078125 -7.09375 32.769531 -8.875 34 -11.1875 C 35.226562 -13.507812 35.84375 -16.195312 35.84375 -19.25 C 35.84375 -22.332031 35.226562 -25.023438 34 -27.328125 C 32.769531 -29.628906 31.085938 -31.40625 28.953125 -32.65625 C 26.828125 -33.90625 24.398438 -34.53125 21.671875 -34.53125 C 18.953125 -34.53125 16.523438 -33.90625 14.390625 -32.65625 C 12.265625 -31.40625 10.582031 -29.628906 9.34375 -27.328125 C 8.113281 -25.023438 7.5 -22.332031 7.5 -19.25 C 7.5 -16.195312 8.113281 -13.507812 9.34375 -11.1875 C 10.582031 -8.875 12.273438 -7.09375 14.421875 -5.84375 C 16.578125 -4.59375 18.992188 -3.96875 21.671875 -3.96875 Z M 21.671875 -3.96875 "/></g></g></g><g clip-path="url(#e52709986f)"><path fill="#ffffff" d="M 419.933594 370.152344 L 411.292969 370.152344 C 409.742188 363.503906 403.980469 349.992188 403.761719 349.546875 L 414.835938 343.121094 C 417.9375 341.351562 420.15625 338.46875 421.042969 334.925781 C 421.925781 331.601562 421.484375 327.835938 419.710938 324.953125 L 413.066406 313.433594 C 409.296875 307.230469 401.101562 305.015625 394.675781 308.558594 L 383.378906 314.984375 C 378.722656 309.445312 373.628906 304.351562 368.089844 299.917969 L 374.515625 288.839844 C 376.289062 285.738281 376.730469 282.195312 375.84375 278.871094 C 374.957031 275.328125 372.742188 272.445312 369.640625 270.675781 L 357.898438 264.027344 C 351.472656 260.484375 343.277344 262.476562 339.507812 268.902344 L 333.085938 279.980469 C 326.214844 277.542969 319.125 275.546875 312.035156 274.441406 L 312.035156 261.589844 C 312.035156 254.28125 306.054688 248.296875 298.523438 248.296875 L 285.007812 248.296875 C 277.695312 248.296875 271.492188 254.28125 271.492188 261.589844 L 271.492188 274.441406 C 264.179688 275.546875 257.3125 277.542969 250.445312 279.980469 L 244.019531 268.902344 C 240.253906 262.699219 232.054688 260.484375 225.632812 264.027344 L 213.890625 270.675781 C 210.789062 272.445312 208.570312 275.328125 207.683594 278.871094 C 206.800781 282.195312 207.242188 285.960938 209.015625 288.839844 L 215.441406 299.917969 C 209.902344 304.570312 204.804688 309.667969 200.152344 314.984375 L 188.851562 308.558594 C 182.429688 305.015625 174.230469 307.007812 170.464844 313.433594 L 163.816406 324.953125 C 162.046875 328.054688 161.601562 331.601562 162.488281 334.925781 C 163.152344 338.46875 165.367188 341.351562 168.46875 343.121094 L 179.546875 349.546875 C 179.328125 349.992188 173.566406 363.503906 172.015625 370.152344 L 161.160156 370.152344 C 155.621094 370.152344 149.859375 373.695312 149.859375 383.445312 L 149.859375 396.738281 C 149.859375 399.175781 151.855469 401.167969 154.292969 401.167969 C 156.726562 401.167969 158.722656 399.175781 158.722656 396.738281 L 158.722656 383.445312 C 158.722656 379.015625 160.273438 379.015625 161.160156 379.015625 L 175.78125 379.015625 C 177.996094 379.015625 179.769531 377.464844 180.214844 375.246094 C 181.097656 368.378906 184.199219 361.511719 187.082031 354.863281 C 187.96875 353.09375 188.632812 351.097656 189.519531 349.324219 C 190.40625 347.332031 189.519531 344.894531 187.523438 343.785156 L 172.902344 335.589844 C 171.792969 334.925781 171.128906 334.039062 170.6875 332.929688 C 170.464844 331.824219 170.464844 330.714844 171.128906 329.609375 L 177.777344 318.085938 C 179.105469 315.871094 181.765625 315.207031 183.980469 316.535156 L 198.601562 324.734375 C 200.597656 325.839844 202.8125 325.398438 204.363281 323.625 C 209.902344 316.535156 216.546875 310.109375 223.636719 304.570312 C 225.410156 303.242188 225.851562 300.804688 224.746094 298.8125 L 216.324219 284.410156 C 215.660156 283.304688 215.660156 282.195312 215.882812 281.085938 C 216.105469 279.980469 216.992188 278.871094 218.097656 278.429688 L 229.839844 271.78125 C 232.054688 270.453125 234.9375 271.339844 236.042969 273.332031 L 244.464844 287.734375 C 245.570312 289.726562 247.785156 290.390625 250.003906 289.507812 C 258.421875 286.183594 267.285156 283.746094 276.367188 282.636719 C 278.582031 282.417969 280.132812 280.421875 280.132812 278.207031 L 280.132812 261.589844 C 280.132812 259.152344 282.128906 257.160156 284.785156 257.160156 L 298.300781 257.160156 C 300.738281 257.160156 302.953125 259.152344 302.953125 261.589844 L 302.953125 278.207031 C 302.953125 280.421875 304.503906 282.195312 306.71875 282.636719 C 315.804688 283.96875 324.664062 286.183594 333.085938 289.507812 C 335.078125 290.390625 337.515625 289.507812 338.625 287.734375 L 347.042969 273.332031 C 348.371094 271.117188 351.03125 270.453125 353.246094 271.78125 L 364.988281 278.429688 C 366.097656 279.09375 366.761719 279.980469 367.203125 281.085938 C 367.425781 282.195312 367.425781 283.304688 366.761719 284.410156 L 358.339844 298.8125 C 357.234375 300.804688 357.675781 303.242188 359.449219 304.570312 C 366.761719 310.109375 373.1875 316.535156 378.722656 323.625 C 380.054688 325.398438 382.492188 325.839844 384.484375 324.734375 L 399.105469 316.535156 C 401.324219 315.207031 404.203125 316.09375 405.3125 318.085938 L 411.957031 329.609375 C 412.621094 330.714844 412.621094 331.824219 412.402344 332.929688 C 412.179688 334.039062 411.292969 335.144531 410.183594 335.589844 L 395.5625 343.785156 C 393.570312 344.894531 392.902344 347.332031 393.570312 349.324219 C 394.234375 351.097656 401.765625 368.378906 402.875 375.246094 C 403.09375 377.464844 405.089844 379.015625 407.304688 379.015625 L 419.710938 379.015625 C 422.148438 379.015625 424.363281 381.007812 424.363281 383.445312 L 424.363281 396.738281 C 424.363281 399.175781 426.359375 401.167969 428.796875 401.167969 C 431.234375 401.167969 433.226562 399.175781 433.226562 396.738281 L 433.226562 383.445312 C 433.449219 376.132812 427.464844 370.152344 419.933594 370.152344 Z M 419.933594 370.152344 " fill-opacity="1" fill-rule="nonzero"/></g><path fill="#ffffff" d="M 378.058594 392.308594 C 378.058594 344.671875 339.289062 305.902344 291.652344 305.902344 C 244.019531 305.902344 205.25 344.671875 205.25 392.308594 C 205.25 439.941406 244.019531 478.710938 291.652344 478.710938 C 294.089844 478.710938 296.085938 476.71875 296.085938 474.28125 L 296.085938 396.738281 L 373.628906 396.738281 C 376.066406 396.738281 378.058594 394.742188 378.058594 392.308594 Z M 291.652344 387.875 C 289.21875 387.875 287.222656 389.871094 287.222656 392.308594 L 287.222656 469.628906 C 246.457031 467.414062 214.109375 433.515625 214.109375 392.308594 C 214.109375 349.546875 248.894531 314.761719 291.652344 314.761719 C 332.863281 314.761719 366.761719 347.109375 368.976562 387.875 Z M 291.652344 387.875 " fill-opacity="1" fill-rule="nonzero"/><g clip-path="url(#52009d23a9)"><path fill="#ffffff" d="M 391.351562 405.601562 L 309.378906 405.601562 C 306.941406 405.601562 304.945312 407.59375 304.945312 410.03125 L 304.945312 492.003906 C 304.945312 494.441406 306.941406 496.4375 309.378906 496.4375 C 357.011719 496.4375 395.785156 457.664062 395.785156 410.03125 C 395.785156 407.59375 393.789062 405.601562 391.351562 405.601562 Z M 313.808594 487.351562 L 313.808594 414.460938 L 386.699219 414.460938 C 384.484375 453.675781 353.023438 485.136719 313.808594 487.351562 Z M 313.808594 487.351562 " fill-opacity="1" fill-rule="nonzero"/></g></svg>